REM DIRINDEX 1\6,1\2\7,1\2\8,1\2\9,1\3\10,1\3\11,1\4\12,1\4\13,1\4\14,1\5\15,1\5\16,1\5\17
REM DIRNAME folder01,folder02,folder03,folder04,folder05,folder06,folder07,folder08,folder09,folder10,folder11,folder12,folder13,folder14,folder15,folder16,folder17
TITLE ""
FILE "3Q_k_025-036.mp3" MP3
  TRACK 01 AUDIO
    TITLE "15:cjc041_1300"
    INDEX 01 00:00:00
  TRACK 02 AUDIO
    TITLE "0:"
    INDEX 01 00:02:38
  TRACK 03 AUDIO
    TITLE "16:cjc041_1301"
    INDEX 01 00:03:17
  TRACK 04 AUDIO
    TITLE "0:"
    INDEX 01 00:07:27
  TRACK 05 AUDIO
    TITLE "17:cjc041_1302"
    INDEX 01 00:08:03
  TRACK 06 AUDIO
    TITLE "17:cjc041_1303"
    INDEX 01 00:11:23
  TRACK 07 AUDIO
    TITLE "0:"
    INDEX 01 00:13:33
  TRACK 08 AUDIO
    TITLE "15:cjc041_1304"
    INDEX 01 00:14:13
  TRACK 09 AUDIO
    TITLE "0:"
    INDEX 01 00:16:00
  TRACK 10 AUDIO
    TITLE "16:cjc041_1305"
    INDEX 01 00:16:57
  TRACK 11 AUDIO
    TITLE "0:"
    INDEX 01 00:19:03
  TRACK 12 AUDIO
    TITLE "17:cjc041_1306"
    INDEX 01 00:19:52
  TRACK 13 AUDIO
    TITLE "17:cjc041_1307"
    INDEX 01 00:22:42
  TRACK 14 AUDIO
    TITLE "0:"
    INDEX 01 00:26:07
  TRACK 15 AUDIO
    TITLE "15:cjc041_1308"
    INDEX 01 00:26:58
  TRACK 16 AUDIO
    TITLE "0:"
    INDEX 01 00:28:39
  TRACK 17 AUDIO
    TITLE "16:cjc041_1309"
    INDEX 01 00:29:17
  TRACK 18 AUDIO
    TITLE "0:"
    INDEX 01 00:30:65
  TRACK 19 AUDIO
    TITLE "17:cjc041_1310"
    INDEX 01 00:31:41
  TRACK 20 AUDIO
    TITLE "17:cjc041_1311"
    INDEX 01 00:35:04
  TRACK 21 AUDIO
    TITLE "0:"
    INDEX 01 00:37:46
  TRACK 22 AUDIO
    TITLE "15:cjc041_1312"
    INDEX 01 00:38:24
  TRACK 23 AUDIO
    TITLE "0:"
    INDEX 01 00:40:11
  TRACK 24 AUDIO
    TITLE "16:cjc041_1313"
    INDEX 01 00:40:68
  TRACK 25 AUDIO
    TITLE "0:"
    INDEX 01 00:43:19
  TRACK 26 AUDIO
    TITLE "17:cjc041_1314"
    INDEX 01 00:44:01
  TRACK 27 AUDIO
    TITLE "17:cjc041_1315"
    INDEX 01 00:47:03
  TRACK 28 AUDIO
    TITLE "0:"
    INDEX 01 00:49:25
  TRACK 29 AUDIO
    TITLE "15:cjc041_1316"
    INDEX 01 00:50:07
  TRACK 30 AUDIO
    TITLE "0:"
    INDEX 01 00:51:30
  TRACK 31 AUDIO
    TITLE "16:cjc041_1317"
    INDEX 01 00:52:10
  TRACK 32 AUDIO
    TITLE "0:"
    INDEX 01 00:58:46
  TRACK 33 AUDIO
    TITLE "17:cjc041_1318"
    INDEX 01 00:59:30
  TRACK 34 AUDIO
    TITLE "17:cjc041_1319"
    INDEX 01 01:02:16
  TRACK 35 AUDIO
    TITLE "0:"
    INDEX 01 01:05:24
  TRACK 36 AUDIO
    TITLE "15:cjc041_1320"
    INDEX 01 01:06:06
  TRACK 37 AUDIO
    TITLE "0:"
    INDEX 01 01:07:15
  TRACK 38 AUDIO
    TITLE "16:cjc041_1321"
    INDEX 01 01:08:09
  TRACK 39 AUDIO
    TITLE "0:"
    INDEX 01 01:12:38
  TRACK 40 AUDIO
    TITLE "17:cjc041_1322"
    INDEX 01 01:13:18
  TRACK 41 AUDIO
    TITLE "17:cjc041_1323"
    INDEX 01 01:16:07
  TRACK 42 AUDIO
    TITLE "0:"
    INDEX 01 01:18:53
  TRACK 43 AUDIO
    TITLE "15:cjc041_1324"
    INDEX 01 01:19:30
  TRACK 44 AUDIO
    TITLE "0:"
    INDEX 01 01:20:71
  TRACK 45 AUDIO
    TITLE "16:cjc041_1325"
    INDEX 01 01:21:55
  TRACK 46 AUDIO
    TITLE "0:"
    INDEX 01 01:25:25
  TRACK 47 AUDIO
    TITLE "17:cjc041_1326"
    INDEX 01 01:26:05
  TRACK 48 AUDIO
    TITLE "17:cjc041_1327"
    INDEX 01 01:28:45
  TRACK 49 AUDIO
    TITLE "0:"
    INDEX 01 01:30:09
  TRACK 50 AUDIO
    TITLE "15:cjc041_1328"
    INDEX 01 01:30:66
  TRACK 51 AUDIO
    TITLE "0:"
    INDEX 01 01:32:15
  TRACK 52 AUDIO
    TITLE "16:cjc041_1329"
    INDEX 01 01:32:72
  TRACK 53 AUDIO
    TITLE "0:"
    INDEX 01 01:35:53
  TRACK 54 AUDIO
    TITLE "17:cjc041_1330"
    INDEX 01 01:36:29
  TRACK 55 AUDIO
    TITLE "17:cjc041_1331"
    INDEX 01 01:41:20
  TRACK 56 AUDIO
    TITLE "0:"
    INDEX 01 01:43:41
  TRACK 57 AUDIO
    TITLE "15:cjc041_1332"
    INDEX 01 01:44:24
  TRACK 58 AUDIO
    TITLE "0:"
    INDEX 01 01:46:25
  TRACK 59 AUDIO
    TITLE "16:cjc041_1333"
    INDEX 01 01:47:07
  TRACK 60 AUDIO
    TITLE "0:"
    INDEX 01 01:49:14
  TRACK 61 AUDIO
    TITLE "17:cjc041_1334"
    INDEX 01 01:49:73
  TRACK 62 AUDIO
    TITLE "17:cjc041_1335"
    INDEX 01 01:53:04
  TRACK 63 AUDIO
    TITLE "0:"
    INDEX 01 01:55:01
  TRACK 64 AUDIO
    TITLE "15:cjc041_1336"
    INDEX 01 01:55:56
  TRACK 65 AUDIO
    TITLE "0:"
    INDEX 01 01:57:57
  TRACK 66 AUDIO
    TITLE "16:cjc041_1337"
    INDEX 01 01:58:40
  TRACK 67 AUDIO
    TITLE "0:"
    INDEX 01 01:59:63
  TRACK 68 AUDIO
    TITLE "17:cjc041_1338"
    INDEX 01 02:00:37
  TRACK 69 AUDIO
    TITLE "17:cjc041_1339"
    INDEX 01 02:03:32
  TRACK 70 AUDIO
    TITLE "0:"
    INDEX 01 02:05:62
  TRACK 71 AUDIO
    TITLE "15:cjc041_1340"
    INDEX 01 02:06:42
  TRACK 72 AUDIO
    TITLE "0:"
    INDEX 01 02:08:23
  TRACK 73 AUDIO
    TITLE "16:cjc041_1341"
    INDEX 01 02:09:05
  TRACK 74 AUDIO
    TITLE "0:"
    INDEX 01 02:10:73
  TRACK 75 AUDIO
    TITLE "17:cjc041_1342"
    INDEX 01 02:11:55
  TRACK 76 AUDIO
    TITLE "17:cjc041_1343"
    INDEX 01 02:15:29
  TRACK 77 AUDIO
    TITLE "0:"
    INDEX 01 02:16:73
  TRACK 78 AUDIO
    TITLE "15:cjc041_1344"
    INDEX 01 02:17:51
  TRACK 79 AUDIO
    TITLE "0:"
    INDEX 01 02:19:44
  TRACK 80 AUDIO
    TITLE "16:cjc041_1345"
    INDEX 01 02:20:22
  TRACK 81 AUDIO
    TITLE "0:"
    INDEX 01 02:22:07
  TRACK 82 AUDIO
    TITLE "17:cjc041_1346"
    INDEX 01 02:22:60
  TRACK 83 AUDIO
    TITLE "17:cjc041_1347"
    INDEX 01 02:26:27
  TRACK 84 AUDIO
    TITLE "0:"
    INDEX 01 02:29:60
